<svg height='200' width='200'  fill="#ffffff" xmlns="http://www.w3.org/2000/svg" xmlns:xlink="http://www.w3.org/1999/xlink" version="1.1" x="0px" y="0px" viewBox="0 0 100 100" enable-background="new 0 0 100 100" xml:space="preserve"><path d="M84,92H70c-1.657,0-3-1.343-3-3V63H31v26c0,1.657-1.343,3-3,3H14c-1.657,0-3-1.343-3-3V53l6-4v37h8V60c0-1.657,1.343-3,3-3  h42c1.657,0,3,1.343,3,3v26h8V49l6,4v36C87,90.657,85.657,92,84,92z"></path><rect x="34" y="66" width="30" height="4"></rect><rect x="34" y="74" width="30" height="4"></rect><rect x="34" y="82" width="30" height="4"></rect><path d="M6.664,50.496l-3.328-4.992l45-30c1.008-0.672,2.32-0.672,3.328,0L65,24.395V18c0-1.657,1.343-3,3-3h16c1.657,0,3,1.343,3,3  v21.438l8.721,6.104l-3.441,4.916l-10-7C81.478,42.896,81,41.979,81,41V21H71v9c0,1.106-0.609,2.123-1.584,2.645  c-0.977,0.523-2.16,0.466-3.08-0.148L50,21.605L6.664,50.496z"></path></svg>